<svg width="116" height="116" viewBox="0 0 116 116" fill="none" xmlns="http://www.w3.org/2000/svg">
<g clip-path="url(#clip0)">
<path d="M58 2.41699C25.955 2.41699 0 27.937 0 59.4117C0 84.5982 16.617 105.957 39.6575 113.487C42.5575 114.023 43.6208 112.259 43.6208 110.746C43.6208 109.393 43.5725 105.807 43.5483 101.056C27.4147 104.492 24.012 93.4093 24.012 93.4093C21.373 86.8312 17.5595 85.0718 17.5595 85.0718C12.3057 81.5387 17.9655 81.6112 17.9655 81.6112C23.7897 82.0075 26.8492 87.4837 26.8492 87.4837C32.0208 96.1982 40.426 93.68 43.7417 92.2252C44.2637 88.5373 45.7572 86.0288 47.415 84.603C34.5342 83.1772 20.996 78.2762 20.996 56.4392C20.996 50.2187 23.2435 45.134 26.9652 41.1465C26.3127 39.7062 24.3552 33.911 27.4727 26.0617C27.4727 26.0617 32.3302 24.5343 43.4227 31.9052C48.0627 30.6388 52.9927 30.0105 57.9227 29.9815C62.8527 30.0105 67.7827 30.6388 72.4227 31.9052C83.4427 24.5343 88.3002 26.0617 88.3002 26.0617C91.4177 33.911 89.4602 39.7062 88.8802 41.1465C92.5777 45.134 94.8252 50.2187 94.8252 56.4392C94.8252 78.3342 81.2677 83.153 68.3627 84.5547C70.3927 86.2657 72.2777 89.7602 72.2777 95.101C72.2777 102.728 72.2052 108.857 72.2052 110.708C72.2052 112.201 73.2202 113.985 76.1927 113.414C99.3975 105.932 116 84.5595 116 59.4117C116 27.937 90.0305 2.41699 58 2.41699Z" fill="#212121"/>
</g>
<defs>
<clipPath id="clip0">
<rect width="116" height="116" fill="white"/>
</clipPath>
</defs>
</svg>
